<?xml version="1.0" encoding="UTF-8"?>
<svg id="Ebene_1" xmlns="http://www.w3.org/2000/svg" version="1.1" xmlns:xlink="http://www.w3.org/1999/xlink" viewBox="0 0 710.8 174.3">
  <!-- Generator: Adobe Illustrator 30.5.1, SVG Export Plug-In . SVG Version: 2.1.4 Build 3)  -->
  <defs>
    <style>
      .st0 {
        clip-path: url(#clippath-6);
      }

      .st1 {
        clip-path: url(#clippath-7);
      }

      .st2 {
        clip-path: url(#clippath-4);
      }

      .st3, .st4 {
        fill: #1d1d1b;
      }

      .st5 {
        fill: none;
      }

      .st6 {
        clip-path: url(#clippath-1);
      }

      .st7 {
        clip-path: url(#clippath-5);
      }

      .st8 {
        clip-path: url(#clippath-3);
      }

      .st4 {
        fill-rule: evenodd;
      }

      .st9 {
        clip-path: url(#clippath-2);
      }

      .st10 {
        clip-path: url(#clippath);
      }

      .st11 {
        fill: #e73331;
      }
    </style>
    <clipPath id="clippath">
      <rect class="st5" width="710.8" height="174.3"/>
    </clipPath>
    <clipPath id="clippath-1">
      <path class="st5" d="M453.7,66.5c0,9.2,3.1,15.2,11.1,20.7,0,0,5.2,3.4,13.9,6.6,9.3,3.4,14.8,6.5,14.8,14.1s-5.6,12.5-12.5,12.5-12.5-5.6-12.5-12.5,6.3-11,7.6-11.5c-1.6-.6-9.2-3.7-13.8-6.8-1.3,1.1-8.6,7.7-8.6,18.2,0,15.2,12.2,27.4,27.4,27.4s27.4-12.2,27.4-27.4-3.1-15.1-11.1-20.6c0,0-5.2-3.4-13.9-6.6-9.3-3.4-14.8-6.1-14.8-14.1s5.6-12.5,12.5-12.5,12.5,5.6,12.5,12.5-5.3,10.6-7.6,11.5c3,1.1,10.9,4.7,13.9,6.8,1.3-1.1,8.6-7.8,8.6-18.3,0-15.2-12.2-27.4-27.4-27.4s-27.4,12.3-27.4,27.4"/>
    </clipPath>
    <clipPath id="clippath-2">
      <rect class="st5" x="453.7" y="39.1" width="54.7" height="96"/>
    </clipPath>
    <clipPath id="clippath-3">
      <path class="st5" d="M515.8,67.6v3.2l7.4-7.4,7.4,7.4v-3.2c0-7.5,6.1-13.7,13.7-13.7s13.7,6.1,13.7,13.7v35.8l7.4,7.4,7.4-7.4v-35.8c0-15.7-12.7-28.5-28.5-28.5s-28.5,12.8-28.5,28.5"/>
    </clipPath>
    <clipPath id="clippath-4">
      <rect class="st5" x="515.8" y="39.1" width="57" height="71.7"/>
    </clipPath>
    <clipPath id="clippath-5">
      <path class="st5" d="M515.8,70.8v35.8c0,15.7,12.7,28.5,28.5,28.5s28.5-12.8,28.5-28.5v-3.2l-7.4,7.4-7.4-7.4v3.2c0,7.5-6.1,13.7-13.7,13.7s-13.7-6.1-13.7-13.7v-35.8l-7.4-7.4-7.4,7.4Z"/>
    </clipPath>
    <clipPath id="clippath-6">
      <rect class="st5" x="515.8" y="63.4" width="57" height="71.7"/>
    </clipPath>
    <clipPath id="clippath-7">
      <rect class="st5" width="710.8" height="174.3"/>
    </clipPath>
  </defs>
  <g class="st10">
    <path class="st11" d="M667.3,87.1l-45.1,45.1c-1.9,1.9-4.4,2.9-7.1,2.9h-20.6l48-48-48-48h20.6c2.7,0,5.2,1.1,7.1,2.9l45.1,45.1Z"/>
  </g>
  <path class="st3" d="M453.7,66.5c0,9.2,3.1,15.2,11.1,20.7,0,0,5.2,3.4,13.9,6.6,9.3,3.4,14.8,6.5,14.8,14.1s-5.6,12.5-12.5,12.5-12.5-5.6-12.5-12.5,6.3-11,7.6-11.5c-1.6-.6-9.2-3.7-13.8-6.8-1.3,1.1-8.6,7.7-8.6,18.2,0,15.2,12.2,27.4,27.4,27.4s27.4-12.2,27.4-27.4-3.1-15.1-11.1-20.6c0,0-5.2-3.4-13.9-6.6-9.3-3.4-14.8-6.1-14.8-14.1s5.6-12.5,12.5-12.5,12.5,5.6,12.5,12.5-5.3,10.6-7.6,11.5c3,1.1,10.9,4.7,13.9,6.8,1.3-1.1,8.6-7.8,8.6-18.3,0-15.2-12.2-27.4-27.4-27.4s-27.4,12.3-27.4,27.4Z"/>
  <path class="st3" d="M515.8,67.6v3.2l7.4-7.4,7.4,7.4v-3.2c0-7.5,6.1-13.7,13.7-13.7s13.7,6.1,13.7,13.7v35.8l7.4,7.4,7.4-7.4v-35.8c0-15.7-12.7-28.5-28.5-28.5s-28.5,12.8-28.5,28.5Z"/>
  <path class="st3" d="M515.8,70.8v35.8c0,15.7,12.7,28.5,28.5,28.5s28.5-12.8,28.5-28.5v-3.2l-7.4,7.4-7.4-7.4v3.2c0,7.5-6.1,13.7-13.7,13.7s-13.7-6.1-13.7-13.7v-35.8l-7.4-7.4-7.4,7.4Z"/>
  <g class="st1">
    <polygon class="st3" points="580.2 77.4 585.2 77.4 585.2 103.1 591.3 103.1 591.3 77.4 596.3 77.4 596.3 71.2 580.2 71.2 580.2 77.4"/>
    <polygon class="st3" points="610.4 71.2 610.4 84 605.9 84 605.9 71.2 599.7 71.2 599.7 103.1 605.9 103.1 605.9 90.2 610.4 90.2 610.4 103.1 616.6 103.1 616.6 71.2 610.4 71.2"/>
    <path class="st11" d="M114.9,87.1c0,15.4-12.5,27.9-27.9,27.9s-27.9-12.5-27.9-27.9,12.5-27.9,27.9-27.9,27.9,12.5,27.9,27.9"/>
    <path class="st4" d="M87.1,43.5c-24.1,0-43.6,19.5-43.6,43.6v43.6h17.4v-8.8c7.3,5.5,16.3,8.8,26.2,8.8s18.9-3.3,26.2-8.8v8.8h17.5v-43.6c0-24.1-19.5-43.6-43.6-43.6M87.1,113.3c-14.5,0-26.2-11.7-26.2-26.2s11.7-26.2,26.2-26.2,26.2,11.7,26.2,26.2-11.7,26.2-26.2,26.2"/>
    <polygon class="st3" points="177.8 106.5 165.6 85.4 144.7 85.4 144.7 130.7 162.1 130.7 162.1 115.6 170.9 130.7 184.8 130.7 184.8 130.7 193.5 115.6 193.5 130.7 211 130.7 211 85.4 190.1 85.4 177.8 106.5"/>
    <path class="st3" d="M268.6,130.7h20.9l-21.8-45.4h-26.2l-21.8,45.4h20.9l2.5-5.2h22.9l2.5,5.2ZM247.4,116.8l7.3-15.1,7.2,15.1h-14.5Z"/>
    <path class="st3" d="M341.8,85.4h-43.6v45.4h43.6c12.5,0,22.7-10.2,22.7-22.7s-10.2-22.7-22.7-22.7M331.4,122h-14v-13.9s0,0,0,0c0,0,0,0,0,0v-13.9h14c7.7,0,14,6.2,14,14s-6.3,14-14,14"/>
    <path class="st3" d="M415.2,130.7h20.9l-21.8-45.4h-26.2l-21.8,45.4h20.9l2.5-5.2h22.9l2.5,5.2ZM394,116.8l7.3-15.1,7.2,15.1h-14.5Z"/>
    <path class="st3" d="M430.4,92.4h-.7v-5.3h2.5c.9,0,1.7.3,1.7,1.4s-.4,1.1-.7,1.3c.3.1.6.3.6,1v1c0,.3,0,.4.3.5h0c0,.1-.9.1-.9.1-.1-.3-.1-1.1-.1-1.3,0-.4,0-.9-.9-.9h-1.7v2.3ZM430.4,89.5h1.7c.5,0,1.1-.1,1.1-.9s-.6-.9-.9-.9h-1.8v1.8Z"/>
    <path class="st3" d="M431.7,94.3c-2.5,0-4.5-2-4.5-4.5s2-4.5,4.5-4.5,4.5,2,4.5,4.5-2,4.5-4.5,4.5M431.7,85.5c-2.3,0-4.2,1.9-4.2,4.2s1.9,4.2,4.2,4.2,4.2-1.9,4.2-4.2-1.9-4.2-4.2-4.2"/>
  </g>
</svg>