<?xml version="1.0" encoding="UTF-8"?>
<svg id="Wirkliche_AMADA_Rot" xmlns="http://www.w3.org/2000/svg" version="1.1" viewBox="0 0 1385.5 307.8">
  <!-- Generator: Adobe Illustrator 30.5.1, SVG Export Plug-In . SVG Version: 2.1.4 Build 3)  -->
  <defs>
    <style>
      .st0, .st1 {
        fill: #1d1d1b;
      }

      .st2 {
        fill: #e30613;
      }

      .st1 {
        fill-rule: evenodd;
      }

      .st3 {
        fill: #e73331;
      }
    </style>
  </defs>
  <path class="st1" d="M61.6,153.9c0-51,41.3-92.3,92.3-92.3s92.3,41.3,92.3,92.3-41.3,92.3-92.3,92.3-92.3-41.3-92.3-92.3h0ZM61.6,277v30.8s-61.6,0-61.6,0v-153.9C0,68.9,68.9,0,153.9,0s153.9,68.9,153.9,153.9q0,153.9,0,153.9h-61.6v-30.8c-25.7,19.3-57.7,30.8-92.4,30.8s-66.6-11.4-92.3-30.8h0Z"/>
  <polygon class="st0" points="357.1 147.7 418.6 147.7 474.1 233.2 529.6 147.7 591.1 147.7 591.1 307.8 529.6 307.8 529.6 260.5 498.7 307.8 449.5 307.8 418.6 260.5 418.6 307.8 357.1 307.8 357.1 147.7 357.1 147.7"/>
  <path class="st0" d="M770.6,258.6l-25.6-53.2-25.6,53.2h51.1ZM717.4,147.8h73.9l77,160.1h-73.9l-8.9-18.5h-80.7l-8.9,18.5h-73.9l77-160.1h18.5Z"/>
  <path class="st0" d="M1015.9,277c27.2,0,49.3-22,49.3-49.2s-22.1-49.3-49.3-49.3h-49.3v98.5h49.3ZM1052.9,147.8c44.2,0,80,35.8,80,80s-35.8,80-80,80h-153.9v-160.1h153.9Z"/>
  <path class="st0" d="M1287.9,258.6l-25.6-53.2-25.6,53.2h51.1ZM1234.7,147.8h73.9l77,160.1h-73.9l-8.9-18.5h-80.7l-8.9,18.5h-73.9l77-160.1h18.5Z"/>
  <path class="st1" d="M1360.7,153.7c-2.6,2.6-3.9,5.7-3.9,9.4s1.3,6.8,3.8,9.4c2.6,2.6,5.7,3.9,9.4,3.9s6.8-1.3,9.4-3.9c2.6-2.6,3.9-5.7,3.9-9.4,0-3.7-1.3-6.8-3.9-9.4-2.6-2.6-5.7-3.9-9.4-3.9s-6.8,1.3-9.4,3.9h0ZM1381,174c-3,3-6.6,4.5-10.9,4.5s-7.9-1.5-10.9-4.5c-3-3-4.5-6.6-4.5-10.9s1.5-7.9,4.5-10.9c3-3,6.6-4.5,10.8-4.5s7.9,1.5,10.9,4.5c3,3,4.5,6.6,4.5,10.9s-1.5,7.9-4.5,10.9h0ZM1373,157.3c-.7-.4-1.9-.6-3.6-.6h-2.5v6.1h2.7c1.3,0,2.2-.1,2.8-.4,1.2-.5,1.7-1.3,1.7-2.6s-.4-2.1-1.1-2.5h0ZM1369.8,154.6c2.1,0,3.6.2,4.6.6,1.7.7,2.6,2.2,2.6,4.3,0,1.5-.6,2.6-1.7,3.3-.6.4-1.4.6-2.5.8,1.3.2,2.3.8,2.9,1.7.6.9.9,1.8.9,2.6v1.2c0,.4,0,.8,0,1.3,0,.4,0,.7.1.9v.2c.1,0-2.7,0-2.7,0,0,0,0-.1,0-.2,0,0,0-.1,0-.2v-.5c0,0,0-1.3,0-1.3,0-2-.5-3.3-1.6-3.9-.6-.4-1.7-.5-3.3-.5h-2.3v6.7h-3v-16.9h5.9Z"/>
  <path class="st2" d="M61.3,153.9c0-51.2,41.5-92.7,92.7-92.7s92.7,41.5,92.7,92.7-41.5,92.7-92.7,92.7-92.7-41.5-92.7-92.7h0Z"/>
  <path class="st3" d="M61.3,153.9c0-51.2,41.5-92.7,92.7-92.7s92.7,41.5,92.7,92.7-41.5,92.7-92.7,92.7-92.7-41.5-92.7-92.7h0Z"/>
</svg>